<?xml version="1.0" encoding="UTF-8"?>
<svg width="62px" height="48px" viewBox="0 0 62 48" version="1.1" xmlns="http://www.w3.org/2000/svg" xmlns:xlink="http://www.w3.org/1999/xlink">
    <title>folder</title>
    <defs>
        <linearGradient x1="34.405795%" y1="96.6686453%" x2="66.8304372%" y2="15.9749988%" id="linearGradient-1">
            <stop stop-color="#047EBA" offset="0%"></stop>
            <stop stop-color="#7ECABE" offset="100%"></stop>
        </linearGradient>
        <linearGradient x1="50%" y1="0%" x2="50%" y2="100%" id="linearGradient-2">
            <stop stop-color="#FFFFFF" offset="0%"></stop>
            <stop stop-color="#9FD1C9" offset="100%"></stop>
        </linearGradient>
    </defs>
    <g id="Изображения" stroke="none" stroke-width="1" fill="none" fill-rule="evenodd">
        <g id="Apps-Copy" transform="translate(-14.000000, -143.000000)">
            <polygon id="Rectangle-path" fill="url(#linearGradient-1)" fill-rule="nonzero" points="0 0 360 0 360 592 0 592"></polygon>
            <g id="folder" transform="translate(14.000000, 143.000000)">
                <path d="M40.9525681,24.9420934 C40.9525681,27.7634553 38.6428872,30.0745837 35.8208016,30.0745837 L5.46227237,30.0745837 C2.63994553,30.0745837 0.330505837,27.7634553 0.330505837,24.9420934 L0.330505837,9.48021012 C0.330505837,6.65764202 2.64018677,4.34820233 5.46227237,4.34820233 L35.8205603,4.34820233 C38.6426459,4.34820233 40.9525681,6.65764202 40.9525681,9.48021012 L40.9525681,24.9420934 L40.9525681,24.9420934 Z" id="Shape" fill-opacity="0.3" fill="#FFFFFF"></path>
                <path d="M0,41.7952374 C0,44.7114086 2.38639689,47.0970817 5.30232685,47.0970817 L56.4571518,47.0970817 C59.3735642,47.0970817 61.7589961,44.7114086 61.7589961,41.7952374 L61.7589961,5.48880934 C61.7589961,2.57239689 59.3735642,0.186964981 56.4571518,0.186964981 L42.2917198,0.186964981 C39.3753074,0.186964981 35.6458988,2.15817899 34.0037432,4.5682179 L29.4068171,11.3158444 C27.7649027,13.725642 24.0354942,15.6973385 21.1188405,15.6973385 L5.30232685,15.6973385 C2.38639689,15.6973385 0,18.0834942 0,20.9991829 L0,41.7952374 Z" id="Shape" fill="url(#linearGradient-2)"></path>
            </g>
        </g>
    </g>
</svg>